<svg role="img" width="48px" height="48px" viewBox="0 0 24 24" stroke-width="0.5" fill="none" aria-labelledby="Cabin in the Cloud Logo">
  <path
     d="M 17.5,18 C 19.985281,18 22,15.985281 22,13.5 22,11.014719 19.985281,9 17.5,9 17.080515,9 16.674436,9.0573979 16.289189,9.1647684 15.27723,7.2808909 13.288199,6 11,6 8.0182498,6 5.5445073,8.1750389 5.0788049,11.025084 3.3444072,11.233109 2,12.709553 2,14.5 2,16.432997 3.5670034,18 5.5,18 Z"
     stroke="#4e4d50" />
  <path
     d="m 7.6529412,12.322686 1.05,-0.945 m 5.9499998,0.945 -1.05,-0.945 m 0,0 -2.45,-2.205 -2.4499998,2.205 m 4.8999998,0 v 4.095 H 8.7029412 v -4.095"
     stroke="#38393e" />
</svg>
